<?xml version="1.0" standalone="no"?>
<!DOCTYPE svg PUBLIC "-//W3C//DTD SVG 20010904//EN"
 "http://www.w3.org/TR/2001/REC-SVG-20010904/DTD/svg10.dtd">
<svg version="1.0" xmlns="http://www.w3.org/2000/svg"
 width="617.000000pt" height="627.000000pt" viewBox="0 0 617.000000 627.000000"
 preserveAspectRatio="xMidYMid meet">

<g transform="translate(0.000000,627.000000) scale(0.100000,-0.100000)"
fill="#000000" stroke="none">
<path d="M2830 5433 c-902 -63 -1656 -565 -2050 -1364 -120 -245 -196 -481
-237 -740 -26 -162 -26 -579 0 -731 89 -525 336 -1014 697 -1378 202 -204 409
-353 660 -477 698 -343 1458 -350 2130 -17 263 131 462 275 665 485 222 228
389 479 514 772 237 553 265 1175 79 1755 -224 700 -746 1256 -1438 1532 -310
124 -699 186 -1020 163z m375 -73 c680 -74 1307 -439 1690 -981 230 -327 368
-677 432 -1096 23 -153 23 -490 -1 -643 -57 -378 -191 -727 -394 -1031 -324
-484 -774 -818 -1312 -974 -223 -64 -344 -80 -630 -80 -223 0 -271 3 -385 24
-780 140 -1429 625 -1770 1326 -120 246 -181 435 -227 705 -29 168 -31 508 -5
680 69 443 224 811 486 1155 380 498 959 827 1603 909 125 17 390 19 513 6z"/>
<path d="M2804 5310 c-392 -31 -787 -164 -1113 -377 -559 -364 -939 -976
-1037 -1668 -23 -161 -23 -460 0 -610 41 -267 108 -482 226 -720 215 -438 524
-772 933 -1009 501 -291 1068 -389 1615 -280 614 122 1148 498 1500 1054 181
286 313 667 353 1019 17 151 7 484 -20 636 -74 428 -264 837 -533 1150 -363
422 -880 708 -1417 784 -168 24 -361 32 -507 21z m541 -59 c779 -136 1427
-651 1730 -1376 310 -738 227 -1556 -225 -2230 -371 -553 -945 -909 -1604
-996 -122 -16 -493 -7 -611 15 -430 79 -815 257 -1136 525 -410 342 -702 853
-801 1401 -30 166 -33 543 -5 714 80 497 318 968 663 1311 363 362 838 588
1374 654 128 16 478 6 615 -18z"/>
<path d="M2563 5094 c-3 -8 -1 -20 5 -26 16 -16 42 -2 42 22 0 24 -38 28 -47
4z"/>
<path d="M2950 5053 c-38 -14 -60 -47 -60 -88 0 -62 29 -95 84 -95 46 0 77 24
91 68 21 69 -49 139 -115 115z m60 -32 c24 -45 5 -142 -28 -141 -41 1 -65 81
-40 135 14 30 53 34 68 6z"/>
<path d="M2800 5041 c0 -5 5 -11 11 -13 9 -3 9 -17 -1 -56 -6 -29 -15 -52 -19
-52 -4 0 -17 21 -29 46 -18 36 -20 49 -11 60 9 11 7 14 -12 14 -36 0 -72 -12
-60 -19 6 -4 31 -44 55 -90 39 -72 43 -86 34 -107 -9 -19 -17 -24 -33 -20 -26
7 -36 -1 -28 -20 7 -20 51 -17 61 4 5 9 24 67 42 127 18 61 40 115 49 122 13
10 10 12 -21 13 -21 0 -38 -4 -38 -9z"/>
<path d="M3132 5043 c-19 -4 -21 -7 -11 -19 13 -16 -4 -133 -22 -144 -12 -8
23 -20 61 -20 19 0 21 3 12 12 -14 14 -16 77 -3 111 12 31 40 42 58 24 20 -19
7 -137 -14 -137 -8 0 -11 -4 -8 -10 3 -5 25 -10 48 -9 23 0 36 3 29 6 -10 4
-11 23 -6 79 5 53 3 78 -6 89 -14 17 -53 20 -81 5 -15 -8 -19 -7 -19 5 0 8 -3
14 -7 14 -5 -1 -18 -4 -31 -6z"/>
<path d="M2588 5016 c-29 -10 -38 -26 -14 -26 16 0 41 -133 26 -138 -25 -9 -7
-21 23 -16 57 10 62 13 44 27 -9 7 -23 45 -32 86 -9 41 -17 75 -18 76 -1 1
-14 -3 -29 -9z"/>
<path d="M3502 5010 c-7 -11 -19 -20 -27 -20 -17 0 -21 -16 -5 -22 5 -2 1 -29
-10 -65 -21 -67 -19 -88 11 -104 21 -11 72 -2 64 12 -3 4 -12 6 -20 3 -24 -9
-28 22 -13 84 13 53 16 57 41 54 32 -3 37 15 5 20 -19 2 -22 8 -20 31 4 32 -8
35 -26 7z"/>
<path d="M3653 5019 c-16 -16 -5 -39 19 -39 14 0 19 6 16 22 -4 25 -19 33 -35
17z"/>
<path d="M2461 4990 c-18 -4 -40 -15 -49 -24 -24 -23 -5 -67 33 -78 69 -21 77
-27 65 -48 -13 -24 -37 -26 -62 -3 -22 20 -29 15 -21 -16 5 -21 10 -23 45 -18
47 6 78 31 78 63 0 25 -34 54 -63 54 -10 0 -27 5 -38 10 -15 9 -17 15 -9 30
13 24 33 25 55 4 9 -9 18 -15 20 -12 6 6 -6 48 -14 47 -3 -1 -21 -5 -40 -9z"/>
<path d="M2265 4962 c-3 -17 -11 -34 -16 -37 -13 -9 -11 -25 3 -22 7 1 23 -27
36 -65 27 -75 48 -90 87 -64 30 20 35 42 6 27 -23 -13 -35 -1 -56 59 -20 56
-19 67 5 73 11 3 20 10 20 16 0 9 -6 9 -22 0 -14 -8 -23 -8 -25 -2 -2 6 -10
18 -17 29 -13 17 -14 16 -21 -14z"/>
<path d="M3757 4980 c11 -12 -20 -97 -73 -204 -17 -36 -17 -36 1 -36 8 0 15
-5 15 -11 0 -11 60 -39 85 -39 8 0 29 12 45 28 62 54 48 152 -22 152 -33 0
-34 10 -8 68 13 29 15 42 7 42 -7 0 -23 3 -37 6 -20 5 -23 4 -13 -6z m58 -140
c30 -33 -6 -120 -50 -120 -43 0 -49 24 -21 85 27 59 42 67 71 35z"/>
<path d="M3605 4942 c-3 -3 0 -11 5 -17 7 -8 6 -23 -1 -46 -22 -71 -31 -88
-47 -92 -18 -4 1 -14 58 -32 21 -7 23 -6 12 7 -9 12 -7 29 13 88 14 41 25 77
25 81 0 8 -58 18 -65 11z"/>
<path d="M3964 4882 c5 -14 -11 -52 -49 -122 -31 -56 -55 -103 -53 -104 1 -1
18 -14 36 -29 49 -39 92 -37 131 8 41 47 42 95 5 124 -15 12 -33 21 -40 21
-18 0 -18 3 7 52 22 42 19 51 -19 63 -21 6 -23 4 -18 -13z m44 -134 c18 -18
14 -52 -11 -89 -25 -37 -50 -47 -72 -29 -21 18 -19 33 12 85 28 45 49 55 71
33z"/>
<path d="M2134 4879 c-38 -11 -68 -43 -61 -64 10 -25 37 -18 37 10 0 30 24 43
45 25 16 -13 21 -50 6 -50 -15 0 -61 -52 -61 -70 0 -9 9 -25 20 -35 17 -15 24
-16 45 -7 14 7 28 19 31 27 4 10 14 13 28 9 15 -3 28 2 41 16 20 22 20 22 0
19 -15 -3 -24 7 -41 51 -27 65 -47 81 -90 69z m60 -111 c7 -27 -16 -53 -38
-45 -19 7 -21 38 -4 55 18 18 35 14 42 -10z"/>
<path d="M1995 4812 c-23 -13 -26 -17 -13 -20 18 -3 21 -12 33 -86 l7 -40 -44
36 c-28 23 -42 43 -41 56 2 20 2 20 -37 -1 -37 -20 -56 -42 -27 -32 6 3 40
-20 74 -50 84 -75 96 -74 86 13 -4 37 -8 84 -7 105 0 20 0 37 -1 36 0 -1 -13
-8 -30 -17z"/>
<path d="M4164 4749 c-3 -6 0 -18 9 -26 18 -18 37 -9 37 18 0 21 -34 27 -46 8z"/>
<path d="M2719 4695 c-502 -79 -942 -360 -1211 -775 -295 -454 -367 -1008
-197 -1513 49 -144 228 -467 260 -467 17 0 9 21 -31 80 -146 215 -248 490
-281 754 -14 118 -7 341 16 467 129 723 645 1250 1380 1411 135 29 463 32 595
5 314 -64 554 -174 785 -357 495 -394 736 -1064 609 -1690 -35 -173 -131 -407
-228 -559 -32 -49 -44 -77 -37 -84 13 -13 99 118 163 251 211 441 223 934 35
1398 -94 231 -221 421 -396 594 -271 268 -624 440 -1004 490 -107 14 -353 11
-458 -5z"/>
<path d="M4114 4683 c9 -22 -58 -123 -82 -123 -13 -1 -10 -7 13 -25 35 -29 55
-32 49 -7 -3 10 12 41 35 74 23 31 41 61 41 66 0 6 -14 15 -31 21 -27 9 -30 9
-25 -6z"/>
<path d="M1768 4673 c-55 -34 -60 -96 -14 -146 68 -74 188 13 142 102 -31 59
-78 75 -128 44z m77 -50 c29 -43 32 -75 10 -93 -13 -11 -21 -10 -43 7 -38 27
-64 81 -51 105 17 31 55 22 84 -19z"/>
<path d="M4210 4619 c0 -30 -39 -171 -52 -186 -15 -18 -39 -16 -54 5 -18 24
-44 0 -27 -26 18 -28 57 -17 157 42 51 31 100 56 109 56 24 0 20 12 -9 34 -26
18 -26 18 -20 0 4 -15 -5 -25 -44 -46 -28 -16 -50 -25 -50 -22 0 33 26 97 42
103 18 6 17 10 -16 35 -36 27 -36 27 -36 5z"/>
<path d="M1612 4548 c-12 -6 -25 -22 -28 -35 -4 -14 -12 -22 -19 -19 -7 2 -22
-6 -34 -18 -24 -26 -27 -38 -7 -30 19 7 107 -93 99 -113 -5 -11 5 -8 30 11 37
29 50 53 22 42 -10 -4 -27 7 -48 30 -48 55 -50 61 -26 85 l21 21 45 -43 c28
-28 42 -50 39 -61 -6 -25 3 -22 44 12 30 26 32 29 14 30 -12 0 -40 21 -66 50
-49 53 -51 54 -86 38z"/>
<path d="M4342 4453 c-34 -17 -62 -58 -62 -92 0 -29 57 -81 89 -81 27 0 66 22
88 50 23 28 15 79 -16 111 -33 33 -52 35 -99 12z m96 -45 c4 -37 -50 -98 -88
-98 -35 0 -44 22 -25 60 34 66 107 91 113 38z"/>
<path d="M2913 4395 c-40 -17 -73 -69 -73 -114 0 -36 31 -95 55 -105 17 -6 21
-36 5 -36 -13 0 -13 -47 -1 -52 6 -2 13 -157 17 -366 l7 -363 35 -15 c19 -8
36 -13 38 -11 2 1 6 171 10 377 6 320 9 377 23 386 13 10 13 14 -2 38 -18 26
-17 27 12 52 71 60 59 169 -24 208 -40 19 -60 20 -102 1z"/>
<path d="M1428 4373 c-8 -10 -18 -26 -21 -35 -4 -10 -12 -18 -18 -18 -12 0
-38 -29 -39 -42 0 -5 6 -8 14 -8 23 0 106 -80 106 -103 1 -20 4 -18 30 13 33
39 37 52 14 43 -10 -4 -31 9 -60 38 -24 24 -44 46 -44 50 0 11 30 39 41 39 18
0 100 -83 95 -97 -10 -24 9 -13 38 24 22 27 25 35 12 30 -14 -5 -32 5 -67 38
-52 48 -77 55 -101 28z"/>
<path d="M4522 4332 c2 -14 -12 -32 -49 -62 -57 -45 -65 -68 -33 -100 21 -21
40 -26 40 -11 0 6 -4 13 -10 16 -19 12 -10 31 36 69 44 37 46 37 65 20 24 -21
35 -13 18 14 -11 18 -10 24 6 42 19 21 19 21 -16 19 -19 -2 -41 1 -48 5 -9 6
-12 2 -9 -12z"/>
<path d="M1214 4255 c-4 -9 -2 -21 4 -27 15 -15 44 -1 40 19 -4 23 -36 29 -44
8z"/>
<path d="M1282 4195 c-15 -33 -15 -34 6 -29 26 7 118 -68 114 -92 -3 -14 5 -9
27 16 34 39 39 55 14 46 -11 -4 -36 9 -75 39 -32 25 -62 45 -66 45 -5 0 -14
-11 -20 -25z"/>
<path d="M2505 4206 c-22 -7 -105 -47 -185 -89 -210 -110 -323 -147 -446 -147
l-68 0 34 -35 c49 -51 105 -69 188 -62 90 8 170 37 329 119 73 37 133 66 133
64 0 -8 -133 -88 -221 -133 -48 -25 -120 -55 -161 -67 l-73 -23 45 -23 c71
-38 146 -34 242 12 42 20 111 59 153 88 42 28 79 49 82 47 11 -12 -254 -187
-284 -187 -27 0 -12 -19 25 -29 51 -15 116 -14 155 3 19 7 70 43 115 80 45 36
82 62 82 57 0 -11 -88 -92 -143 -132 -37 -26 -37 -28 -15 -35 70 -22 164 8
226 74 45 47 50 35 7 -15 -19 -23 -35 -44 -35 -47 0 -13 93 -5 123 10 61 31
62 34 59 137 l-3 95 -36 7 c-51 9 -88 51 -102 113 -6 29 -18 63 -27 76 -33 51
-115 68 -199 42z"/>
<path d="M3274 4206 c-44 -20 -71 -59 -84 -120 -14 -67 -64 -116 -119 -116
-20 0 -21 -6 -21 -99 l0 -100 32 -22 c30 -22 138 -41 138 -24 0 4 -16 25 -35
48 -47 54 -35 61 18 10 58 -56 101 -76 165 -76 78 0 82 13 20 61 -58 45 -127
112 -114 112 4 0 31 -20 59 -45 76 -66 155 -105 214 -105 50 0 113 16 113 29
0 4 -28 21 -62 38 -69 34 -238 151 -238 164 0 5 42 -19 93 -52 172 -113 241
-138 333 -119 29 6 63 19 74 28 21 17 20 18 -62 45 -70 23 -168 71 -325 163
-18 11 -33 22 -33 27 0 4 60 -24 133 -62 228 -120 349 -146 452 -97 28 13 60
35 73 48 l23 25 -98 6 c-118 6 -209 35 -362 115 -215 113 -240 124 -299 128
-36 3 -68 -1 -88 -10z"/>
<path d="M4682 4116 c2 -11 -16 -30 -52 -54 -64 -43 -77 -79 -39 -106 27 -19
47 -10 22 10 -17 13 -16 16 15 43 18 15 44 34 58 42 23 12 27 11 40 -6 18 -24
29 -13 15 14 -9 17 -8 22 10 31 24 13 17 24 -14 26 -12 1 -30 5 -40 9 -14 6
-18 4 -15 -9z"/>
<path d="M1172 4025 c-15 -33 -15 -35 1 -30 11 4 84 -72 76 -80 -2 -1 -27 -1
-56 2 -37 4 -53 10 -56 22 -2 11 -10 3 -24 -24 l-21 -40 96 -3 c89 -2 99 -4
122 -28 23 -23 24 -26 8 -35 -21 -12 -24 -39 -4 -39 7 0 19 7 27 16 17 21 -4
61 -78 146 -30 35 -60 76 -67 91 l-12 28 -12 -26z"/>
<path d="M4669 3941 c-16 -16 -29 -40 -29 -53 0 -36 36 -88 62 -88 l22 0 -22
20 c-24 23 -29 69 -10 88 21 21 33 13 56 -33 24 -50 33 -54 62 -25 23 23 24
29 11 63 -25 65 -100 79 -152 28z m130 -20 c8 -14 6 -22 -8 -35 -18 -16 -20
-16 -35 6 -9 12 -16 28 -16 35 0 20 48 15 59 -6z"/>
<path d="M4850 3816 c0 -20 -40 -86 -51 -86 -6 0 -29 9 -51 20 -23 11 -43 20
-45 20 -4 0 8 -53 14 -60 2 -2 8 1 12 8 8 14 61 7 61 -8 0 -5 -12 -18 -26 -29
-24 -19 -26 -23 -14 -51 7 -16 16 -30 21 -30 5 0 8 3 7 8 -3 10 44 81 57 86 6
2 28 -5 50 -15 21 -10 39 -18 40 -16 1 1 -4 16 -11 32 -7 17 -13 24 -14 18 0
-15 -19 -17 -39 -4 -10 7 -11 13 -2 30 7 12 16 19 22 16 12 -8 12 -4 -6 39
-16 38 -25 46 -25 22z"/>
<path d="M1051 3784 c-29 -37 -27 -104 4 -104 20 0 26 28 9 38 -27 15 -13 47
21 47 l30 0 -3 -57 c-3 -49 -1 -58 18 -68 34 -18 70 11 70 55 0 19 4 35 10 35
5 0 14 9 20 20 13 25 4 46 -14 31 -8 -7 -26 -4 -55 10 -58 26 -86 24 -110 -7z
m122 -55 c14 -22 2 -49 -23 -49 -16 0 -20 6 -20 36 0 28 4 35 16 32 9 -2 21
-10 27 -19z"/>
<path d="M2624 3636 c-98 -60 -94 -186 8 -269 56 -45 80 -57 251 -123 164 -64
211 -92 234 -138 25 -54 11 -98 -47 -148 -28 -24 -50 -46 -50 -51 0 -4 14 -16
32 -27 l31 -19 43 30 c50 34 90 97 99 154 5 32 1 51 -22 95 -38 74 -101 116
-261 175 -222 81 -302 134 -302 196 0 47 23 60 93 53 67 -6 117 6 117 30 0 29
-61 60 -125 64 -50 2 -67 -1 -101 -22z m146 -16 c0 -5 -7 -10 -15 -10 -8 0
-15 5 -15 10 0 6 7 10 15 10 8 0 15 -4 15 -10z"/>
<path d="M3118 3638 c-40 -23 -54 -46 -39 -61 14 -14 105 -21 127 -9 41 21 90
-24 78 -72 -12 -51 -82 -99 -210 -147 l-56 -21 42 -24 c23 -13 50 -24 60 -24
35 0 179 81 209 117 55 66 58 146 9 208 -45 57 -151 73 -220 33z m60 -19 c-2
-6 -8 -10 -13 -10 -5 0 -11 4 -13 10 -2 6 4 11 13 11 9 0 15 -5 13 -11z"/>
<path d="M1002 3618 c-24 -12 -37 -47 -29 -78 3 -13 0 -20 -9 -20 -9 0 -14
-12 -14 -36 0 -29 3 -34 13 -26 17 15 207 -36 207 -55 0 -28 16 -11 27 29 12
43 9 63 -6 40 -5 -9 -17 -11 -35 -6 -24 6 -27 10 -20 33 12 44 7 72 -18 97
-27 27 -84 38 -116 22z m88 -53 c20 -11 30 -23 30 -39 0 -37 -20 -47 -66 -35
-47 13 -64 26 -64 48 0 41 48 53 100 26z"/>
<path d="M4927 3608 c-7 -19 -130 -55 -135 -39 -2 6 -7 9 -12 6 -4 -3 -2 -20
4 -40 14 -41 26 -55 26 -32 0 11 17 21 52 32 50 14 53 14 74 -6 12 -12 20 -27
17 -35 -6 -17 -99 -48 -125 -41 -17 5 -19 2 -14 -16 3 -12 6 -30 6 -39 0 -10
5 -18 10 -18 6 0 10 6 10 14 0 9 20 19 53 26 28 7 60 17 70 22 21 11 23 61 2
78 -9 7 -13 21 -10 31 8 23 -19 78 -28 57z"/>
<path d="M1625 3351 c-17 -220 51 -388 199 -492 39 -28 72 -46 74 -41 1 5 -31
94 -73 197 -41 104 -74 190 -72 191 7 8 95 -170 138 -279 l46 -119 13 61 c21
99 10 213 -29 293 -38 80 -121 174 -203 229 -89 61 -85 63 -93 -40z"/>
<path d="M933 3380 c3 -21 2 -40 -2 -42 -12 -5 -23 -58 -12 -58 5 0 12 4 15 9
8 12 108 -8 127 -25 15 -13 17 -12 23 8 9 36 7 76 -3 59 -14 -21 -107 -5 -126
22 -14 20 -14 22 0 25 24 5 19 42 -6 42 -19 0 -21 -4 -16 -40z"/>
<path d="M4980 3371 c0 -13 -105 -34 -129 -26 -15 5 -18 1 -14 -22 8 -52 13
-60 23 -42 6 10 36 21 85 29 41 7 75 14 75 16 0 2 -5 15 -12 29 -11 24 -28 34
-28 16z"/>
<path d="M5047 3366 c-8 -20 20 -43 35 -28 14 14 3 42 -16 42 -7 0 -16 -6 -19
-14z"/>
<path d="M4240 3323 c-219 -129 -315 -305 -280 -513 l12 -72 33 81 c47 115
174 343 175 313 0 -7 -22 -57 -50 -112 -46 -91 -120 -261 -120 -275 0 -3 22 6
48 19 131 66 222 204 244 366 10 82 4 220 -10 220 -4 0 -27 -12 -52 -27z"/>
<path d="M5105 3265 c-12 -19 -215 -49 -229 -35 -18 18 -22 11 -18 -30 2 -22
8 -40 13 -40 5 0 9 4 9 9 0 5 14 11 30 13 41 6 39 -14 -5 -48 -28 -21 -35 -33
-35 -60 0 -19 5 -34 10 -34 6 0 10 6 10 13 0 7 20 30 45 51 l46 38 22 -28 c12
-15 25 -32 29 -38 12 -19 18 -1 11 38 -3 23 -9 33 -13 25 -6 -9 -16 -6 -39 10
-17 12 -31 26 -31 30 0 5 36 13 81 19 44 5 83 12 85 15 3 3 2 19 -3 36 -6 25
-10 28 -18 16z"/>
<path d="M2766 3208 c-68 -56 -92 -140 -60 -216 25 -61 73 -101 195 -162 126
-64 169 -102 169 -151 0 -33 -20 -79 -44 -98 -21 -18 -20 -44 3 -58 15 -10 24
-7 53 17 45 37 68 86 68 145 0 90 -43 135 -204 215 -108 54 -147 87 -159 139
-10 41 18 89 73 123 27 17 50 33 50 34 0 4 -55 28 -86 38 -13 4 -32 -4 -58
-26z"/>
<path d="M1050 3215 c0 -12 -11 -14 -58 -9 -70 8 -98 -4 -107 -47 -12 -54 28
-115 51 -77 4 7 -2 18 -14 26 -29 19 -28 40 4 54 31 14 44 0 44 -48 0 -57 56
-84 85 -40 12 18 13 29 5 51 -7 20 -8 31 0 39 13 13 13 66 0 66 -5 0 -10 -7
-10 -15z m-12 -72 c13 -26 4 -43 -23 -43 -22 0 -35 17 -35 46 0 20 47 18 58
-3z"/>
<path d="M2926 3193 c-8 -8 -8 -134 1 -201 5 -44 10 -55 33 -67 27 -14 28 -13
34 17 3 17 6 74 6 127 l0 97 -34 17 c-19 8 -37 13 -40 10z"/>
<path d="M2111 3055 c-89 -97 -121 -232 -87 -370 10 -43 15 -52 15 -30 1 17
12 73 26 125 30 113 34 124 40 118 3 -2 -8 -58 -24 -123 l-29 -120 47 50 c68
71 95 146 88 245 -3 41 -12 92 -19 113 l-14 39 -43 -47z"/>
<path d="M5035 3020 c-3 -5 -35 -10 -70 -10 -58 0 -66 -3 -81 -25 -13 -20 -14
-30 -5 -57 8 -22 8 -34 1 -36 -12 -4 -13 -59 -1 -66 5 -3 12 1 15 10 5 14 17
15 81 9 l75 -7 0 38 c0 30 -3 35 -12 26 -7 -7 -35 -12 -63 -12 -53 0 -75 12
-75 42 0 27 31 37 93 31 l57 -6 0 37 c0 37 -4 44 -15 26z"/>
<path d="M798 2970 c3 -33 6 -38 16 -27 12 16 160 32 154 18 -2 -4 -39 -40
-83 -79 -79 -70 -81 -72 -77 -112 4 -38 5 -40 18 -22 11 16 31 20 111 26 86 7
99 6 110 -10 18 -25 21 -16 14 36 -6 40 -8 43 -18 25 -10 -17 -24 -20 -95 -23
-71 -3 -81 -2 -68 10 8 8 52 47 98 87 45 41 81 78 79 84 -1 5 -53 9 -125 8
-80 -1 -122 2 -122 8 0 6 -3 11 -8 11 -4 0 -6 -18 -4 -40z"/>
<path d="M3753 2943 c-24 -64 -24 -184 1 -235 21 -43 113 -151 119 -140 2 4
10 31 17 61 17 73 8 175 -20 231 -25 49 -81 129 -92 130 -3 0 -15 -21 -25 -47z
m93 -235 c25 -98 30 -139 15 -123 -8 10 -51 188 -51 214 0 31 13 -1 36 -91z"/>
<path d="M1521 2820 c40 -72 115 -147 181 -179 55 -28 71 -31 153 -31 57 0 95
-4 103 -12 24 -24 11 5 -29 64 -58 85 -107 130 -175 164 -49 24 -74 29 -157
32 l-100 4 24 -42z m338 -139 c38 -23 73 -46 77 -52 9 -15 11 -16 -133 61 -68
36 -123 68 -123 72 0 11 96 -33 179 -81z"/>
<path d="M2827 2810 c-35 -27 -57 -80 -57 -135 0 -80 38 -127 161 -199 91 -53
122 -112 84 -162 -15 -20 -20 -64 -7 -64 19 0 55 35 68 66 35 84 9 136 -108
216 -94 64 -118 95 -118 152 0 27 8 43 35 69 l36 35 -35 20 c-34 20 -35 20
-59 2z"/>
<path d="M4865 2764 c-6 -37 0 -57 13 -38 10 16 111 1 123 -17 27 -44 -4 -64
-76 -49 -30 6 -55 16 -55 21 0 5 -4 9 -9 9 -9 0 -22 -71 -14 -80 2 -2 8 1 12
8 6 10 19 10 59 1 60 -12 85 -41 59 -66 -12 -13 -24 -13 -71 -3 -31 6 -56 16
-56 23 0 21 -17 -7 -23 -38 l-5 -30 81 -2 c47 -1 86 2 94 9 15 12 17 56 4 78
-7 10 -4 18 11 28 17 12 19 22 14 58 -3 27 -1 44 6 46 7 3 9 14 4 33 -5 19
-10 25 -15 17 -9 -16 -123 -1 -129 17 -7 22 -20 10 -27 -25z"/>
<path d="M4227 2779 c-43 -10 -123 -50 -152 -76 -33 -30 -85 -93 -85 -104 0
-5 15 1 33 14 36 28 166 89 179 85 5 -2 -39 -28 -99 -58 -59 -30 -111 -54
-115 -53 -3 1 -12 -5 -20 -14 -10 -13 -10 -15 0 -9 7 4 53 9 103 10 79 3 97 7
157 37 53 27 77 47 115 99 44 57 47 65 31 71 -25 10 -100 9 -147 -2z"/>
<path d="M2930 2681 c0 -94 1 -99 25 -115 13 -9 27 -16 30 -16 3 0 5 47 5 103
0 101 -1 104 -25 115 -14 7 -28 12 -30 12 -3 0 -5 -44 -5 -99z"/>
<path d="M2855 2454 c-20 -31 -30 -84 -21 -118 7 -27 62 -96 77 -96 14 0 11
45 -6 76 -8 16 -15 40 -15 54 0 30 27 73 41 65 5 -4 9 -55 9 -115 0 -109 0
-110 28 -127 37 -24 51 -44 52 -71 0 -13 4 -20 10 -17 22 13 10 74 -20 108
-29 33 -29 36 -24 113 3 43 2 84 -3 90 -8 11 -95 64 -105 64 -3 0 -13 -12 -23
-26z"/>
<path d="M4807 2453 c-3 -16 -8 -35 -12 -44 -5 -13 -1 -15 18 -12 14 3 50 -2
80 -11 75 -22 77 -21 77 22 0 25 -3 33 -9 23 -14 -22 -131 5 -131 30 0 29 -17
22 -23 -8z"/>
<path d="M3775 2439 c-465 -67 -774 -412 -775 -865 l0 -101 98 96 c222 218
528 330 875 319 104 -3 108 -2 103 17 -3 11 -34 138 -68 282 l-63 263 -55 -1
c-30 -1 -82 -5 -115 -10z"/>
<path d="M2020 2436 c0 -1 -29 -128 -65 -281 -36 -152 -65 -278 -65 -280 0 -1
66 -2 148 -2 266 1 465 -57 671 -196 70 -47 211 -180 211 -199 0 -4 5 -8 11
-8 14 0 2 188 -18 290 -57 287 -267 530 -540 625 -82 29 -225 55 -299 55 -30
0 -54 -2 -54 -4z"/>
<path d="M5010 2385 c-10 -11 -10 -19 -2 -27 15 -15 44 -2 40 19 -4 23 -22 27
-38 8z"/>
<path d="M4060 2363 c0 -4 33 -134 74 -288 41 -154 73 -281 73 -281 -1 -1 -51
2 -112 7 -298 24 -602 -49 -825 -196 -63 -42 -210 -180 -210 -197 0 -5 35 16
78 46 144 100 338 180 537 220 186 38 449 38 644 1 46 -9 85 -14 87 -12 4 4
-229 684 -237 691 -9 9 -109 17 -109 9z"/>
<path d="M1832 2350 c-18 -4 -35 -10 -38 -13 -6 -6 -233 -691 -230 -694 1 -2
36 4 77 11 429 82 837 14 1141 -190 45 -30 83 -52 85 -50 2 2 -27 35 -64 73
-222 228 -576 336 -952 293 -47 -5 -86 -8 -88 -7 -1 2 11 55 28 118 16 63 48
186 70 274 22 88 43 168 45 178 6 19 -15 21 -74 7z"/>
<path d="M1046 2269 c-31 -25 -34 -61 -6 -89 28 -28 64 -25 89 7 24 30 20 58
-11 86 -26 22 -40 22 -72 -4z"/>
<path d="M4780 2220 c-20 -20 -26 -56 -12 -76 8 -13 46 -34 61 -34 20 0 51 40
51 65 0 30 -32 65 -60 65 -11 0 -29 -9 -40 -20z"/>
<path d="M2890 2180 c-8 -18 -9 -40 -4 -57 l8 -28 4 25 c2 14 8 29 13 35 12
12 12 55 0 55 -5 0 -14 -13 -21 -30z"/>
<path d="M2943 2050 c4 -79 9 -145 11 -148 3 -2 9 -1 15 3 7 4 11 55 11 135 0
122 -1 130 -22 141 l-21 11 6 -142z"/>
<path d="M3910 1640 c-316 -21 -622 -128 -817 -287 -51 -41 -55 -43 -122 -43
-69 0 -70 1 -143 55 -82 62 -255 151 -368 189 -116 38 -268 65 -408 72 l-127
5 28 -25 c15 -14 71 -51 123 -82 301 -177 572 -254 896 -254 342 0 658 96 951
290 59 39 107 75 107 80 0 6 -1 9 -2 9 -2 -1 -55 -5 -118 -9z"/>
<path d="M2483 1100 c-25 -10 -47 -45 -38 -60 11 -18 40 -10 50 12 13 29 41
34 66 12 41 -37 15 -92 -81 -170 -39 -31 -69 -62 -67 -68 2 -6 39 -14 83 -18
43 -4 89 -10 101 -13 19 -4 24 0 31 27 10 37 5 55 -11 39 -12 -12 -109 -15
-120 -5 -4 4 14 20 38 36 87 58 120 116 99 173 -14 37 -98 56 -151 35z"/>
<path d="M3380 1092 c-94 -46 -108 -231 -21 -276 70 -36 153 -2 167 68 7 38
-15 90 -41 100 -31 12 -88 6 -107 -11 -17 -15 -18 -15 -18 6 0 63 60 127 82
87 11 -20 37 -21 44 -1 16 42 -45 58 -106 27z m69 -145 c6 -8 14 -28 17 -46
12 -58 -48 -95 -80 -49 -19 27 -21 79 -4 96 16 16 53 15 67 -1z"/>
<path d="M2761 1054 c-68 -57 -68 -210 0 -258 14 -9 43 -16 70 -16 37 0 52 5
73 26 45 45 60 142 32 209 -28 65 -119 86 -175 39z m110 -21 c18 -21 17 -149
-1 -192 -14 -34 -44 -48 -65 -31 -38 32 -44 165 -9 217 17 27 56 30 75 6z"/>
<path d="M3046 1059 c-32 -25 -36 -69 -6 -69 13 0 20 7 20 19 0 46 64 54 89
11 12 -23 12 -30 -3 -62 -9 -19 -42 -62 -72 -94 -30 -32 -54 -64 -54 -72 0
-10 23 -12 103 -10 l102 3 3 38 c3 37 -11 51 -22 22 -4 -11 -21 -15 -62 -15
l-57 0 55 53 c66 64 85 105 69 146 -22 53 -115 70 -165 30z"/>
</g>
</svg>
